# xmcd
#
# Track frame offsets:
#   150
#   19453
#   34405
#   48509
#   64176
#   78762
#   95070
#   107506
#   119600
#   134997
#   149508
#   163849
#   193799
#   211901
#   226749
#   241742
#   253240
#   268270
#   281404
#   294371
#   308291
#   320514
#
# Disc length: 4469 seconds
#
# Revision: 0
# Processed by: cddbd v1.5.2PL0 Copyright (c) Steve Scherf et al.
# Submitted via: uFREEDB ActiveX Control 1.5
#
DISCID=4f117316
DTITLE=Gustavo Lima - Inventor dos Amores
DYEAR=2010
DGENRE=Country
TTITLE0=Caso Consumado
TTITLE1=Calafrio
TTITLE2=Me Deixe em Paz
TTITLE3=Coração - Revelação
TTITLE4=Prazo de Validade
TTITLE5=Super Homem (Part. Edson)
TTITLE6=Cor de Ouro
TTITLE7=Arrasta
TTITLE8=Rosas e Versos
TTITLE9=Refém
TTITLE10=Tornado
TTITLE11=Acústico Violão (Na Hora H - Passou da Conta - Me 
TTITLE12=Amor de Primavera
TTITLE13=Inventor dos Amores (Part. Jorge and Mateus)
TTITLE14=É Sempre Assim
TTITLE15=O Nosso Amor Venceu
TTITLE16=Eu Te Quero Sim (Part. Maria C. and Rodolfo)
TTITLE17=Pode Ir Embora
TTITLE18=O Mundo é Uma Bola
TTITLE19=Eu Volto Pra Você
TTITLE20=Furacão (Part. Humberto and Ronaldo)
TTITLE21=Coca-Cola
EXTD=
EXTT0=
EXTT1=
EXTT2=
EXTT3=
EXTT4=
EXTT5=
EXTT6=
EXTT7=
EXTT8=
EXTT9=
EXTT10=
EXTT11=
EXTT12=
EXTT13=
EXTT14=
EXTT15=
EXTT16=
EXTT17=
EXTT18=
EXTT19=
EXTT20=
EXTT21=
PLAYORDER=
